<svg width="1200" height="200" viewBox="0 0 1200 200" fill="none" xmlns="http://www.w3.org/2000/svg">
<g clip-path="url(#clip0_912_6146)">
<path d="M-0.999989 201L-1 -699L1201 -699L1201 201L-0.999989 201Z" fill="#1D1F30"/>
<path opacity="0.1" d="M754.539 224.076L826.248 224.076L966.716 83.5975L968.444 81.8694L1240.99 -190.686L1240.99 -262.415L1134.89 -156.303L1098.14 -119.553L754.539 224.076Z" fill="#8A90C7"/>
<path d="M185.123 123.554C184.474 123.557 183.839 123.367 183.298 123.009C182.757 122.651 182.335 122.14 182.084 121.541C181.834 120.943 181.767 120.284 181.892 119.647C182.017 119.01 182.328 118.425 182.785 117.965C183.243 117.505 183.827 117.192 184.463 117.064C185.099 116.936 185.759 117 186.359 117.248C186.958 117.496 187.471 117.916 187.832 118.455C188.193 118.994 188.385 119.628 188.385 120.277C188.385 121.144 188.042 121.975 187.431 122.589C186.819 123.203 185.99 123.55 185.123 123.554ZM167.351 123.554C166.702 123.557 166.067 123.367 165.526 123.009C164.985 122.651 164.563 122.14 164.312 121.541C164.062 120.943 163.995 120.284 164.12 119.647C164.244 119.01 164.555 118.425 165.013 117.965C165.471 117.505 166.055 117.192 166.691 117.064C167.327 116.936 167.987 117 168.587 117.248C169.186 117.496 169.699 117.916 170.06 118.455C170.421 118.994 170.613 119.628 170.613 120.277C170.613 121.144 170.27 121.975 169.659 122.589C169.047 123.203 168.217 123.55 167.351 123.554ZM149.594 123.554C148.945 123.557 148.31 123.367 147.769 123.009C147.228 122.651 146.805 122.14 146.555 121.541C146.305 120.943 146.238 120.284 146.363 119.647C146.487 119.01 146.798 118.425 147.256 117.965C147.714 117.505 148.298 117.192 148.934 117.064C149.57 116.936 150.23 117 150.829 117.248C151.429 117.496 151.942 117.916 152.303 118.455C152.663 118.994 152.856 119.628 152.856 120.277C152.856 121.144 152.513 121.975 151.901 122.589C151.29 123.203 150.46 123.55 149.594 123.554ZM131.822 123.554C131.173 123.557 130.538 123.367 129.997 123.009C129.456 122.651 129.033 122.14 128.783 121.541C128.533 120.943 128.466 120.284 128.59 119.647C128.715 119.01 129.026 118.425 129.484 117.965C129.942 117.505 130.526 117.192 131.162 117.064C131.798 116.936 132.458 117 133.057 117.248C133.657 117.496 134.17 117.916 134.531 118.455C134.891 118.994 135.084 119.628 135.084 120.277C135.084 121.144 134.741 121.975 134.129 122.589C133.518 123.203 132.688 123.55 131.822 123.554ZM114.049 123.554C113.401 123.554 112.768 123.362 112.229 123.002C111.69 122.642 111.27 122.13 111.022 121.531C110.774 120.932 110.709 120.273 110.835 119.638C110.962 119.002 111.274 118.418 111.732 117.96C112.19 117.501 112.774 117.189 113.41 117.063C114.046 116.936 114.705 117.001 115.304 117.249C115.902 117.497 116.414 117.917 116.774 118.456C117.135 118.995 117.327 119.629 117.327 120.277C117.327 121.136 116.99 121.961 116.388 122.573C115.786 123.186 114.968 123.538 114.109 123.554H114.049ZM96.2922 123.554C95.6434 123.557 95.0083 123.367 94.4674 123.009C93.9265 122.651 93.5041 122.14 93.2538 121.541C93.0034 120.943 92.9364 120.284 93.0612 119.647C93.1859 119.01 93.4969 118.425 93.9546 117.965C94.4124 117.505 94.9963 117.192 95.6325 117.064C96.2686 116.936 96.9283 117 97.528 117.248C98.1278 117.496 98.6405 117.916 99.0013 118.455C99.3621 118.994 99.5547 119.628 99.5547 120.277C99.5547 120.711 99.4685 121.141 99.301 121.542C99.1335 121.942 98.8881 122.305 98.579 122.61C98.27 122.915 97.9033 123.156 97.5005 123.318C97.0977 123.48 96.6668 123.56 96.2326 123.554H96.2922ZM185.123 138.673C184.478 138.673 183.847 138.482 183.31 138.124C182.774 137.765 182.356 137.256 182.109 136.66C181.862 136.064 181.797 135.408 181.923 134.775C182.049 134.142 182.36 133.561 182.816 133.104C183.272 132.648 183.854 132.338 184.486 132.212C185.119 132.086 185.775 132.15 186.371 132.397C186.968 132.644 187.477 133.062 187.835 133.599C188.194 134.135 188.385 134.766 188.385 135.411C188.385 136.276 188.042 137.106 187.43 137.718C186.818 138.33 185.988 138.673 185.123 138.673V138.673ZM167.351 138.673C166.706 138.673 166.075 138.482 165.538 138.124C165.002 137.765 164.584 137.256 164.337 136.66C164.09 136.064 164.025 135.408 164.151 134.775C164.277 134.142 164.588 133.561 165.044 133.104C165.5 132.648 166.081 132.338 166.714 132.212C167.347 132.086 168.003 132.15 168.599 132.397C169.195 132.644 169.705 133.062 170.063 133.599C170.422 134.135 170.613 134.766 170.613 135.411C170.613 136.276 170.27 137.106 169.658 137.718C169.046 138.33 168.216 138.673 167.351 138.673V138.673ZM149.594 138.673C148.951 138.676 148.322 138.489 147.785 138.136C147.248 137.782 146.828 137.278 146.577 136.687C146.326 136.095 146.255 135.443 146.373 134.811C146.491 134.179 146.793 133.597 147.242 133.136C147.69 132.676 148.264 132.358 148.892 132.222C149.521 132.087 150.175 132.14 150.773 132.375C151.371 132.61 151.886 133.017 152.254 133.544C152.622 134.07 152.826 134.694 152.841 135.337C152.851 135.77 152.774 136.201 152.616 136.605C152.457 137.008 152.22 137.376 151.918 137.686C151.615 137.997 151.254 138.244 150.855 138.414C150.456 138.583 150.027 138.672 149.594 138.673V138.673ZM131.822 138.673C131.176 138.673 130.546 138.482 130.009 138.124C129.473 137.765 129.054 137.256 128.807 136.66C128.56 136.064 128.496 135.408 128.622 134.775C128.748 134.142 129.058 133.561 129.515 133.104C129.971 132.648 130.552 132.338 131.185 132.212C131.818 132.086 132.474 132.15 133.07 132.397C133.666 132.644 134.176 133.062 134.534 133.599C134.893 134.135 135.084 134.766 135.084 135.411C135.084 136.276 134.74 137.106 134.128 137.718C133.517 138.33 132.687 138.673 131.822 138.673V138.673ZM114.049 138.673C113.405 138.67 112.776 138.477 112.241 138.116C111.706 137.756 111.291 137.246 111.046 136.649C110.801 136.053 110.739 135.398 110.866 134.766C110.994 134.134 111.306 133.554 111.763 133.099C112.22 132.645 112.801 132.335 113.433 132.211C114.066 132.086 114.721 132.151 115.316 132.399C115.911 132.646 116.42 133.064 116.778 133.6C117.136 134.137 117.327 134.767 117.327 135.411C117.327 136.269 116.989 137.092 116.387 137.702C115.785 138.313 114.966 138.662 114.109 138.673H114.049ZM96.2922 138.673C95.647 138.673 95.0162 138.482 94.4797 138.124C93.9432 137.765 93.525 137.256 93.2781 136.66C93.0312 136.064 92.9666 135.408 93.0925 134.775C93.2184 134.142 93.5291 133.561 93.9853 133.104C94.4416 132.648 95.0229 132.338 95.6558 132.212C96.2886 132.086 96.9446 132.15 97.5407 132.397C98.1369 132.644 98.6464 133.062 99.0049 133.599C99.3634 134.135 99.5547 134.766 99.5547 135.411C99.5548 135.845 99.4684 136.274 99.3007 136.674C99.1331 137.073 98.8874 137.436 98.5782 137.739C98.2689 138.043 97.9022 138.282 97.4994 138.442C97.0967 138.603 96.6661 138.681 96.2326 138.673H96.2922Z" fill="#8A90C7"/>
<rect x="295" y="99.9999" width="56" height="56" rx="28" fill="#292C46"/>
<rect x="437" y="99.9999" width="56" height="56" rx="28" fill="#292C46"/>
<rect x="366" y="99.9999" width="56" height="56" rx="28" fill="#292C46"/>
<rect x="224" y="99.9999" width="56" height="56" rx="28" fill="#292C46"/>
<path d="M244.788 116.567H247.019C247.845 116.567 248.513 117.21 248.513 118.004C248.513 118.799 247.845 119.441 247.019 119.441H244.788C243.962 119.441 243.294 118.799 243.294 118.004C243.294 117.21 243.98 116.567 244.788 116.567Z" fill="white"/>
<path d="M239.218 127.912H246.281C247.107 127.912 247.775 128.554 247.775 129.349C247.775 130.143 247.107 130.786 246.281 130.786H239.218C238.392 130.786 237.725 130.143 237.725 129.349C237.725 128.52 238.392 127.912 239.218 127.912Z" fill="white"/>
<path d="M262.464 116.567H251.482C250.656 116.567 249.989 117.21 249.989 118.004C249.989 118.681 250.516 119.256 251.184 119.408H253.345C253.38 119.408 253.45 119.408 253.485 119.408C253.52 119.408 253.591 119.408 253.626 119.408C254.293 119.543 254.821 120.118 254.821 120.811C254.821 121.605 254.153 122.248 253.327 122.248H243.751C243.084 122.383 242.557 122.958 242.557 123.651C242.557 124.344 243.084 124.902 243.751 125.054H254.1C254.926 125.054 255.594 125.697 255.594 126.491C255.594 127.286 254.926 127.929 254.1 127.929H250.446C249.778 128.064 249.251 128.639 249.251 129.332C249.251 130.025 249.778 130.583 250.446 130.735H251.851C251.957 130.735 252.045 130.735 252.15 130.769C252.185 130.769 252.185 130.769 252.22 130.803C252.29 130.803 252.326 130.836 252.413 130.836C252.449 130.836 252.484 130.87 252.519 130.87C252.554 130.904 252.624 130.904 252.659 130.938C252.695 130.972 252.73 130.972 252.765 131.005C252.8 131.039 252.835 131.073 252.87 131.107C252.905 131.141 252.905 131.141 252.941 131.175C252.976 131.208 253.011 131.242 253.046 131.276C253.081 131.31 253.081 131.344 253.116 131.377C253.151 131.411 253.151 131.479 253.187 131.513C253.187 131.547 253.222 131.58 253.222 131.614C253.257 131.682 253.257 131.716 253.257 131.8C253.257 131.834 253.257 131.868 253.292 131.868C253.292 131.935 253.327 132.054 253.327 132.155C253.327 132.95 252.659 133.592 251.834 133.592H237.725C237.619 133.592 237.532 133.592 237.426 133.558H235.493C234.668 133.558 234 134.201 234 134.995C234 135.79 234.668 136.432 235.493 136.432H255.4L256.771 128.943H257.966L260.865 136.432H266.522L263.219 128.52C266.575 127.624 268.437 125.257 268.877 122.789C269.544 119.357 267.524 116.567 262.464 116.567ZM263.729 123.009C263.43 124.547 262.393 125.511 260.496 125.511H257.368L258.264 120.54H261.392C263.325 120.54 264.027 121.504 263.729 123.009Z" fill="white"/>
<path d="M-111 232.032L-108.557 232.032L53.2569 70.2216L52.0354 69L-111 232.032Z" fill="#8A90C7"/>
<path d="M106.6 68.352L103.384 55.2H100.312L97.096 68.352L93.88 55.2H91.48L95.608 72H98.584L101.848 58.68L105.112 72H108.088L112.216 55.2H109.816L106.6 68.352ZM118.991 72.24C118.159 72.24 117.399 72.104 116.711 71.832C116.023 71.544 115.431 71.144 114.935 70.632C114.439 70.104 114.055 69.472 113.783 68.736C113.511 68 113.375 67.184 113.375 66.288V65.76C113.375 64.864 113.511 64.048 113.783 63.312C114.055 62.576 114.439 61.944 114.935 61.416C115.431 60.888 116.023 60.48 116.711 60.192C117.399 59.904 118.159 59.76 118.991 59.76C119.823 59.76 120.583 59.904 121.271 60.192C121.959 60.48 122.551 60.888 123.047 61.416C123.543 61.944 123.927 62.576 124.199 63.312C124.471 64.048 124.607 64.864 124.607 65.76V66.576H115.679C115.727 67.616 116.031 68.488 116.591 69.192C117.151 69.88 117.951 70.224 118.991 70.224C119.647 70.224 120.231 70.096 120.743 69.84C121.271 69.584 121.719 69.264 122.087 68.88L123.647 70.272C123.167 70.88 122.495 71.36 121.631 71.712C120.783 72.064 119.903 72.24 118.991 72.24ZM115.775 64.752H122.207C122.063 63.888 121.719 63.176 121.175 62.616C120.647 62.056 119.919 61.776 118.991 61.776C118.063 61.776 117.327 62.056 116.783 62.616C116.255 63.176 115.919 63.888 115.775 64.752ZM128.409 60.528H126.489C126.921 59.536 127.225 58.608 127.401 57.744C127.593 56.864 127.689 56.016 127.689 55.2H129.609C129.609 56.016 129.521 56.848 129.345 57.696C129.185 58.544 128.873 59.488 128.409 60.528ZM131.972 72V60H134.372V61.392C134.836 60.944 135.38 60.6 136.004 60.36C136.644 60.12 137.348 60 138.116 60V62.016C137.588 62.016 137.092 62.104 136.628 62.28C136.18 62.44 135.788 62.68 135.452 63C135.116 63.32 134.852 63.712 134.66 64.176C134.468 64.624 134.372 65.136 134.372 65.712V72H131.972ZM144.655 72.24C143.823 72.24 143.063 72.104 142.375 71.832C141.687 71.544 141.095 71.144 140.599 70.632C140.103 70.104 139.719 69.472 139.447 68.736C139.175 68 139.039 67.184 139.039 66.288V65.76C139.039 64.864 139.175 64.048 139.447 63.312C139.719 62.576 140.103 61.944 140.599 61.416C141.095 60.888 141.687 60.48 142.375 60.192C143.063 59.904 143.823 59.76 144.655 59.76C145.487 59.76 146.247 59.904 146.935 60.192C147.623 60.48 148.215 60.888 148.711 61.416C149.207 61.944 149.591 62.576 149.863 63.312C150.135 64.048 150.271 64.864 150.271 65.76V66.576H141.343C141.391 67.616 141.695 68.488 142.255 69.192C142.815 69.88 143.615 70.224 144.655 70.224C145.311 70.224 145.895 70.096 146.407 69.84C146.935 69.584 147.383 69.264 147.751 68.88L149.311 70.272C148.831 70.88 148.159 71.36 147.295 71.712C146.447 72.064 145.567 72.24 144.655 72.24ZM141.439 64.752H147.871C147.727 63.888 147.383 63.176 146.839 62.616C146.311 62.056 145.583 61.776 144.655 61.776C143.727 61.776 142.991 62.056 142.447 62.616C141.919 63.176 141.583 63.888 141.439 64.752ZM168.42 63.696V72H166.116V70.68C165.652 71.176 165.116 71.56 164.508 71.832C163.9 72.104 163.22 72.24 162.468 72.24C161.86 72.24 161.284 72.16 160.74 72C160.212 71.84 159.748 71.608 159.348 71.304C158.948 70.984 158.628 70.608 158.388 70.176C158.164 69.728 158.052 69.216 158.052 68.64C158.052 68 158.18 67.464 158.436 67.032C158.692 66.6 159.02 66.24 159.42 65.952C159.836 65.664 160.3 65.44 160.812 65.28C161.324 65.12 161.844 65 162.372 64.92C162.9 64.84 163.404 64.792 163.884 64.776C164.364 64.76 164.772 64.752 165.108 64.752H166.116V63.696C166.116 63.152 165.884 62.728 165.42 62.424C164.972 62.12 164.364 61.968 163.596 61.968C163.036 61.968 162.5 62.088 161.988 62.328C161.492 62.568 161.06 62.896 160.692 63.312L159.156 61.68C159.7 61.136 160.356 60.68 161.124 60.312C161.892 59.944 162.708 59.76 163.572 59.76C164.292 59.76 164.948 59.856 165.54 60.048C166.148 60.24 166.66 60.512 167.076 60.864C167.508 61.2 167.836 61.608 168.06 62.088C168.3 62.568 168.42 63.104 168.42 63.696ZM166.068 66.576H164.868C164.388 66.576 163.884 66.592 163.355 66.624C162.828 66.64 162.332 66.712 161.868 66.84C161.42 66.952 161.044 67.128 160.74 67.368C160.452 67.608 160.308 67.936 160.308 68.352C160.308 68.976 160.548 69.456 161.028 69.792C161.508 70.112 162.084 70.272 162.756 70.272C163.252 70.272 163.692 70.176 164.076 69.984C164.476 69.792 164.812 69.536 165.084 69.216C165.372 68.88 165.596 68.488 165.756 68.04C165.916 67.592 166.02 67.104 166.068 66.576ZM170.38 60H172.78V61.08C173.628 60.36 174.684 60 175.948 60C176.7 60 177.372 60.12 177.964 60.36C178.572 60.584 179.084 60.912 179.5 61.344C179.932 61.776 180.26 62.296 180.484 62.904C180.724 63.496 180.844 64.16 180.844 64.896V72H178.444V64.896C178.444 64.512 178.372 64.152 178.228 63.816C178.084 63.464 177.884 63.168 177.628 62.928C177.372 62.672 177.068 62.472 176.716 62.328C176.38 62.184 176.012 62.112 175.612 62.112C175.212 62.112 174.836 62.184 174.484 62.328C174.148 62.472 173.852 62.672 173.596 62.928C173.34 63.168 173.14 63.464 172.996 63.816C172.852 64.152 172.78 64.512 172.78 64.896V72H170.38V60ZM191.682 72H189.282V60H191.682V72ZM189.042 56.448C189.042 56.016 189.17 55.672 189.426 55.416C189.698 55.144 190.05 55.008 190.482 55.008C190.914 55.008 191.258 55.144 191.514 55.416C191.786 55.672 191.922 56.016 191.922 56.448C191.922 56.88 191.786 57.232 191.514 57.504C191.258 57.76 190.914 57.888 190.482 57.888C190.05 57.888 189.698 57.76 189.426 57.504C189.17 57.232 189.042 56.88 189.042 56.448ZM193.887 60H196.287V61.08C197.135 60.36 198.191 60 199.455 60C200.207 60 200.879 60.12 201.471 60.36C202.079 60.584 202.591 60.912 203.007 61.344C203.439 61.776 203.767 62.296 203.991 62.904C204.231 63.496 204.351 64.16 204.351 64.896V72H201.951V64.896C201.951 64.512 201.879 64.152 201.735 63.816C201.591 63.464 201.391 63.168 201.135 62.928C200.879 62.672 200.575 62.472 200.223 62.328C199.887 62.184 199.519 62.112 199.119 62.112C198.719 62.112 198.343 62.184 197.991 62.328C197.655 62.472 197.359 62.672 197.103 62.928C196.847 63.168 196.647 63.464 196.503 63.816C196.359 64.152 196.287 64.512 196.287 64.896V72H193.887V60ZM206.075 60H208.475V61.08C209.323 60.36 210.379 60 211.643 60C212.395 60 213.067 60.12 213.659 60.36C214.267 60.584 214.779 60.912 215.195 61.344C215.627 61.776 215.955 62.296 216.179 62.904C216.419 63.496 216.539 64.16 216.539 64.896V72H214.139V64.896C214.139 64.512 214.067 64.152 213.923 63.816C213.779 63.464 213.579 63.168 213.323 62.928C213.067 62.672 212.763 62.472 212.411 62.328C212.075 62.184 211.707 62.112 211.307 62.112C210.907 62.112 210.531 62.184 210.179 62.328C209.843 62.472 209.547 62.672 209.291 62.928C209.035 63.168 208.835 63.464 208.691 63.816C208.547 64.152 208.475 64.512 208.475 64.896V72H206.075V60ZM229.302 65.76V66.24C229.302 67.136 229.166 67.952 228.894 68.688C228.622 69.424 228.238 70.056 227.742 70.584C227.246 71.112 226.654 71.52 225.966 71.808C225.278 72.096 224.518 72.24 223.686 72.24C222.854 72.24 222.094 72.096 221.406 71.808C220.718 71.52 220.126 71.112 219.63 70.584C219.134 70.056 218.75 69.424 218.478 68.688C218.206 67.952 218.07 67.136 218.07 66.24V65.76C218.07 64.864 218.206 64.048 218.478 63.312C218.75 62.576 219.134 61.944 219.63 61.416C220.126 60.888 220.718 60.48 221.406 60.192C222.094 59.904 222.854 59.76 223.686 59.76C224.518 59.76 225.278 59.904 225.966 60.192C226.654 60.48 227.246 60.888 227.742 61.416C228.238 61.944 228.622 62.576 228.894 63.312C229.166 64.048 229.302 64.864 229.302 65.76ZM226.998 66.24V65.76C226.998 65.2 226.926 64.68 226.782 64.2C226.638 63.72 226.43 63.304 226.158 62.952C225.886 62.584 225.542 62.296 225.126 62.088C224.71 61.88 224.23 61.776 223.686 61.776C223.142 61.776 222.662 61.88 222.246 62.088C221.83 62.296 221.486 62.584 221.214 62.952C220.942 63.304 220.734 63.72 220.59 64.2C220.446 64.68 220.374 65.2 220.374 65.76V66.24C220.374 66.8 220.446 67.32 220.59 67.8C220.734 68.28 220.942 68.704 221.214 69.072C221.486 69.424 221.83 69.704 222.246 69.912C222.662 70.12 223.142 70.224 223.686 70.224C224.23 70.224 224.71 70.12 225.126 69.912C225.542 69.704 225.886 69.424 226.158 69.072C226.43 68.704 226.638 68.28 226.782 67.8C226.926 67.32 226.998 66.8 226.998 66.24ZM235.648 69.12L232.576 60H230.224L234.256 72H237.04L241.072 60H238.72L235.648 69.12ZM252.537 63.696V72H250.233V70.68C249.769 71.176 249.233 71.56 248.625 71.832C248.017 72.104 247.337 72.24 246.585 72.24C245.977 72.24 245.401 72.16 244.857 72C244.329 71.84 243.865 71.608 243.465 71.304C243.065 70.984 242.745 70.608 242.505 70.176C242.281 69.728 242.169 69.216 242.169 68.64C242.169 68 242.297 67.464 242.553 67.032C242.809 66.6 243.137 66.24 243.537 65.952C243.953 65.664 244.417 65.44 244.929 65.28C245.441 65.12 245.961 65 246.489 64.92C247.017 64.84 247.521 64.792 248.001 64.776C248.481 64.76 248.889 64.752 249.225 64.752H250.233V63.696C250.233 63.152 250.001 62.728 249.537 62.424C249.089 62.12 248.481 61.968 247.713 61.968C247.153 61.968 246.617 62.088 246.105 62.328C245.609 62.568 245.177 62.896 244.809 63.312L243.273 61.68C243.817 61.136 244.473 60.68 245.241 60.312C246.009 59.944 246.825 59.76 247.689 59.76C248.409 59.76 249.065 59.856 249.657 60.048C250.265 60.24 250.777 60.512 251.193 60.864C251.625 61.2 251.953 61.608 252.177 62.088C252.417 62.568 252.537 63.104 252.537 63.696ZM250.185 66.576H248.985C248.505 66.576 248.001 66.592 247.473 66.624C246.945 66.64 246.449 66.712 245.985 66.84C245.537 66.952 245.161 67.128 244.857 67.368C244.569 67.608 244.425 67.936 244.425 68.352C244.425 68.976 244.665 69.456 245.145 69.792C245.625 70.112 246.201 70.272 246.873 70.272C247.369 70.272 247.809 70.176 248.193 69.984C248.593 69.792 248.929 69.536 249.201 69.216C249.489 68.88 249.713 68.488 249.873 68.04C250.033 67.592 250.137 67.104 250.185 66.576ZM254.065 61.968V60H255.649V56.64H258.049V60H260.497V61.968H258.049V67.872C258.049 68.528 258.273 69 258.721 69.288C259.169 69.56 259.777 69.696 260.545 69.696V72C258.945 72 257.729 71.688 256.897 71.064C256.065 70.44 255.649 69.44 255.649 68.064V61.968H254.065ZM264.807 72H262.407V60H264.807V72ZM262.167 56.448C262.167 56.016 262.295 55.672 262.551 55.416C262.823 55.144 263.175 55.008 263.607 55.008C264.039 55.008 264.383 55.144 264.639 55.416C264.911 55.672 265.047 56.016 265.047 56.448C265.047 56.88 264.911 57.232 264.639 57.504C264.383 57.76 264.039 57.888 263.607 57.888C263.175 57.888 262.823 57.76 262.551 57.504C262.295 57.232 262.167 56.88 262.167 56.448ZM271.812 69.12L268.74 60H266.388L270.42 72H273.204L277.236 60H274.884L271.812 69.12ZM283.757 72.24C282.925 72.24 282.165 72.104 281.477 71.832C280.789 71.544 280.197 71.144 279.701 70.632C279.205 70.104 278.821 69.472 278.549 68.736C278.277 68 278.141 67.184 278.141 66.288V65.76C278.141 64.864 278.277 64.048 278.549 63.312C278.821 62.576 279.205 61.944 279.701 61.416C280.197 60.888 280.789 60.48 281.477 60.192C282.165 59.904 282.925 59.76 283.757 59.76C284.589 59.76 285.349 59.904 286.037 60.192C286.725 60.48 287.317 60.888 287.813 61.416C288.309 61.944 288.693 62.576 288.965 63.312C289.237 64.048 289.373 64.864 289.373 65.76V66.576H280.445C280.493 67.616 280.797 68.488 281.357 69.192C281.917 69.88 282.717 70.224 283.757 70.224C284.413 70.224 284.997 70.096 285.509 69.84C286.037 69.584 286.485 69.264 286.853 68.88L288.413 70.272C287.933 70.88 287.261 71.36 286.397 71.712C285.549 72.064 284.669 72.24 283.757 72.24ZM280.541 64.752H286.973C286.829 63.888 286.485 63.176 285.941 62.616C285.413 62.056 284.685 61.776 283.757 61.776C282.829 61.776 282.093 62.056 281.549 62.616C281.021 63.176 280.685 63.888 280.541 64.752ZM305.985 61.392V55.2H308.385V72H305.985V70.608C305.521 71.12 304.969 71.52 304.329 71.808C303.705 72.096 303.009 72.24 302.241 72.24C301.457 72.24 300.737 72.096 300.081 71.808C299.441 71.504 298.889 71.08 298.425 70.536C297.961 69.992 297.601 69.336 297.345 68.568C297.089 67.8 296.961 66.944 296.961 66C296.961 65.056 297.089 64.2 297.345 63.432C297.601 62.664 297.961 62.008 298.425 61.464C298.889 60.92 299.441 60.504 300.081 60.216C300.737 59.912 301.457 59.76 302.241 59.76C303.009 59.76 303.705 59.904 304.329 60.192C304.969 60.48 305.521 60.88 305.985 61.392ZM299.265 66C299.265 66.56 299.337 67.096 299.481 67.608C299.625 68.104 299.833 68.544 300.105 68.928C300.377 69.312 300.721 69.616 301.137 69.84C301.553 70.064 302.033 70.176 302.577 70.176C303.121 70.176 303.601 70.064 304.017 69.84C304.433 69.616 304.777 69.312 305.049 68.928C305.321 68.544 305.529 68.104 305.673 67.608C305.817 67.096 305.889 66.56 305.889 66C305.889 65.44 305.817 64.912 305.673 64.416C305.529 63.904 305.321 63.456 305.049 63.072C304.777 62.688 304.433 62.384 304.017 62.16C303.601 61.936 303.121 61.824 302.577 61.824C302.033 61.824 301.553 61.936 301.137 62.16C300.721 62.384 300.377 62.688 300.105 63.072C299.833 63.456 299.625 63.904 299.481 64.416C299.337 64.912 299.265 65.44 299.265 66ZM315.772 72.24C314.94 72.24 314.18 72.104 313.492 71.832C312.804 71.544 312.212 71.144 311.716 70.632C311.22 70.104 310.836 69.472 310.564 68.736C310.292 68 310.156 67.184 310.156 66.288V65.76C310.156 64.864 310.292 64.048 310.564 63.312C310.836 62.576 311.22 61.944 311.716 61.416C312.212 60.888 312.804 60.48 313.492 60.192C314.18 59.904 314.94 59.76 315.772 59.76C316.604 59.76 317.364 59.904 318.052 60.192C318.74 60.48 319.332 60.888 319.828 61.416C320.324 61.944 320.708 62.576 320.98 63.312C321.252 64.048 321.388 64.864 321.388 65.76V66.576H312.46C312.508 67.616 312.812 68.488 313.372 69.192C313.932 69.88 314.732 70.224 315.772 70.224C316.428 70.224 317.012 70.096 317.524 69.84C318.052 69.584 318.5 69.264 318.868 68.88L320.428 70.272C319.948 70.88 319.276 71.36 318.412 71.712C317.564 72.064 316.684 72.24 315.772 72.24ZM312.556 64.752H318.988C318.844 63.888 318.5 63.176 317.956 62.616C317.428 62.056 316.7 61.776 315.772 61.776C314.844 61.776 314.108 62.056 313.564 62.616C313.036 63.176 312.7 63.888 312.556 64.752ZM327.734 69.12L324.662 60H322.31L326.342 72H329.126L333.158 60H330.806L327.734 69.12ZM339.679 72.24C338.847 72.24 338.087 72.104 337.399 71.832C336.711 71.544 336.119 71.144 335.623 70.632C335.127 70.104 334.743 69.472 334.471 68.736C334.199 68 334.063 67.184 334.063 66.288V65.76C334.063 64.864 334.199 64.048 334.471 63.312C334.743 62.576 335.127 61.944 335.623 61.416C336.119 60.888 336.711 60.48 337.399 60.192C338.087 59.904 338.847 59.76 339.679 59.76C340.511 59.76 341.271 59.904 341.959 60.192C342.647 60.48 343.239 60.888 343.735 61.416C344.231 61.944 344.615 62.576 344.887 63.312C345.159 64.048 345.295 64.864 345.295 65.76V66.576H336.367C336.415 67.616 336.719 68.488 337.279 69.192C337.839 69.88 338.639 70.224 339.679 70.224C340.335 70.224 340.919 70.096 341.431 69.84C341.959 69.584 342.407 69.264 342.775 68.88L344.335 70.272C343.855 70.88 343.183 71.36 342.319 71.712C341.471 72.064 340.591 72.24 339.679 72.24ZM336.463 64.752H342.895C342.751 63.888 342.407 63.176 341.863 62.616C341.335 62.056 340.607 61.776 339.679 61.776C338.751 61.776 338.015 62.056 337.471 62.616C336.943 63.176 336.607 63.888 336.463 64.752ZM349.721 72V55.2H347.321V72H349.721ZM362.967 65.76V66.24C362.967 67.136 362.831 67.952 362.559 68.688C362.287 69.424 361.903 70.056 361.407 70.584C360.911 71.112 360.319 71.52 359.631 71.808C358.943 72.096 358.183 72.24 357.351 72.24C356.519 72.24 355.759 72.096 355.071 71.808C354.383 71.52 353.791 71.112 353.295 70.584C352.799 70.056 352.415 69.424 352.143 68.688C351.871 67.952 351.735 67.136 351.735 66.24V65.76C351.735 64.864 351.871 64.048 352.143 63.312C352.415 62.576 352.799 61.944 353.295 61.416C353.791 60.888 354.383 60.48 355.071 60.192C355.759 59.904 356.519 59.76 357.351 59.76C358.183 59.76 358.943 59.904 359.631 60.192C360.319 60.48 360.911 60.888 361.407 61.416C361.903 61.944 362.287 62.576 362.559 63.312C362.831 64.048 362.967 64.864 362.967 65.76ZM360.663 66.24V65.76C360.663 65.2 360.591 64.68 360.447 64.2C360.303 63.72 360.095 63.304 359.823 62.952C359.551 62.584 359.207 62.296 358.791 62.088C358.375 61.88 357.895 61.776 357.351 61.776C356.807 61.776 356.327 61.88 355.911 62.088C355.495 62.296 355.151 62.584 354.879 62.952C354.607 63.304 354.399 63.72 354.255 64.2C354.111 64.68 354.039 65.2 354.039 65.76V66.24C354.039 66.8 354.111 67.32 354.255 67.8C354.399 68.28 354.607 68.704 354.879 69.072C355.151 69.424 355.495 69.704 355.911 69.912C356.327 70.12 356.807 70.224 357.351 70.224C357.895 70.224 358.375 70.12 358.791 69.912C359.207 69.704 359.551 69.424 359.823 69.072C360.095 68.704 360.303 68.28 360.447 67.8C360.591 67.32 360.663 66.8 360.663 66.24ZM367.152 70.608V76.8H364.752V60H367.152V61.392C367.616 60.88 368.16 60.48 368.784 60.192C369.424 59.904 370.128 59.76 370.896 59.76C371.68 59.76 372.392 59.912 373.032 60.216C373.688 60.504 374.248 60.92 374.712 61.464C375.176 62.008 375.536 62.664 375.792 63.432C376.048 64.2 376.176 65.056 376.176 66C376.176 66.944 376.048 67.8 375.792 68.568C375.536 69.336 375.176 69.992 374.712 70.536C374.248 71.08 373.688 71.504 373.032 71.808C372.392 72.096 371.68 72.24 370.896 72.24C370.128 72.24 369.424 72.096 368.784 71.808C368.16 71.52 367.616 71.12 367.152 70.608ZM373.872 66C373.872 65.44 373.8 64.912 373.656 64.416C373.512 63.904 373.304 63.456 373.032 63.072C372.76 62.688 372.416 62.384 372 62.16C371.584 61.936 371.104 61.824 370.56 61.824C370.016 61.824 369.536 61.936 369.12 62.16C368.704 62.384 368.36 62.688 368.088 63.072C367.816 63.456 367.608 63.904 367.464 64.416C367.32 64.912 367.248 65.44 367.248 66C367.248 66.56 367.32 67.096 367.464 67.608C367.608 68.104 367.816 68.544 368.088 68.928C368.36 69.312 368.704 69.616 369.12 69.84C369.536 70.064 370.016 70.176 370.56 70.176C371.104 70.176 371.584 70.064 372 69.84C372.416 69.616 372.76 69.312 373.032 68.928C373.304 68.544 373.512 68.104 373.656 67.608C373.8 67.096 373.872 66.56 373.872 66ZM377.9 72V60H380.3V61.008C381.068 60.336 382.028 60 383.18 60C383.996 60 384.716 60.16 385.34 60.48C385.98 60.8 386.5 61.248 386.9 61.824C387.284 61.248 387.796 60.8 388.436 60.48C389.076 60.16 389.804 60 390.62 60C391.324 60 391.956 60.12 392.516 60.36C393.092 60.584 393.58 60.912 393.98 61.344C394.396 61.776 394.716 62.296 394.94 62.904C395.164 63.496 395.276 64.16 395.276 64.896V72H392.876V64.896C392.876 64.048 392.644 63.376 392.18 62.88C391.716 62.368 391.1 62.112 390.332 62.112C389.564 62.112 388.948 62.368 388.484 62.88C388.02 63.376 387.788 64.048 387.788 64.896V72H385.388V64.896C385.388 64.048 385.156 63.376 384.692 62.88C384.228 62.368 383.612 62.112 382.844 62.112C382.076 62.112 381.46 62.368 380.996 62.88C380.532 63.376 380.3 64.048 380.3 64.896V72H377.9ZM402.608 72.24C401.776 72.24 401.016 72.104 400.328 71.832C399.64 71.544 399.048 71.144 398.552 70.632C398.056 70.104 397.672 69.472 397.4 68.736C397.128 68 396.992 67.184 396.992 66.288V65.76C396.992 64.864 397.128 64.048 397.4 63.312C397.672 62.576 398.056 61.944 398.552 61.416C399.048 60.888 399.64 60.48 400.328 60.192C401.016 59.904 401.776 59.76 402.608 59.76C403.44 59.76 404.2 59.904 404.888 60.192C405.576 60.48 406.168 60.888 406.664 61.416C407.16 61.944 407.544 62.576 407.816 63.312C408.088 64.048 408.224 64.864 408.224 65.76V66.576H399.296C399.344 67.616 399.648 68.488 400.208 69.192C400.768 69.88 401.568 70.224 402.608 70.224C403.264 70.224 403.848 70.096 404.36 69.84C404.888 69.584 405.336 69.264 405.704 68.88L407.264 70.272C406.784 70.88 406.112 71.36 405.248 71.712C404.4 72.064 403.52 72.24 402.608 72.24ZM399.392 64.752H405.824C405.68 63.888 405.336 63.176 404.792 62.616C404.264 62.056 403.536 61.776 402.608 61.776C401.68 61.776 400.944 62.056 400.4 62.616C399.872 63.176 399.536 63.888 399.392 64.752ZM409.77 60H412.17V61.08C413.018 60.36 414.074 60 415.338 60C416.09 60 416.762 60.12 417.354 60.36C417.962 60.584 418.474 60.912 418.89 61.344C419.322 61.776 419.65 62.296 419.874 62.904C420.114 63.496 420.234 64.16 420.234 64.896V72H417.834V64.896C417.834 64.512 417.762 64.152 417.618 63.816C417.474 63.464 417.274 63.168 417.018 62.928C416.762 62.672 416.458 62.472 416.106 62.328C415.77 62.184 415.402 62.112 415.002 62.112C414.602 62.112 414.226 62.184 413.874 62.328C413.538 62.472 413.242 62.672 412.986 62.928C412.73 63.168 412.53 63.464 412.386 63.816C412.242 64.152 412.17 64.512 412.17 64.896V72H409.77V60ZM421.526 61.968V60H423.11V56.64H425.51V60H427.958V61.968H425.51V67.872C425.51 68.528 425.734 69 426.182 69.288C426.63 69.56 427.238 69.696 428.006 69.696V72C426.406 72 425.19 71.688 424.358 71.064C423.526 70.44 423.11 69.44 423.11 68.064V61.968H421.526ZM445.99 63.696V72H443.686V70.68C443.222 71.176 442.686 71.56 442.078 71.832C441.47 72.104 440.79 72.24 440.038 72.24C439.43 72.24 438.854 72.16 438.31 72C437.782 71.84 437.318 71.608 436.918 71.304C436.518 70.984 436.198 70.608 435.958 70.176C435.734 69.728 435.622 69.216 435.622 68.64C435.622 68 435.75 67.464 436.006 67.032C436.262 66.6 436.59 66.24 436.99 65.952C437.406 65.664 437.87 65.44 438.382 65.28C438.894 65.12 439.414 65 439.942 64.92C440.47 64.84 440.974 64.792 441.454 64.776C441.934 64.76 442.342 64.752 442.678 64.752H443.686V63.696C443.686 63.152 443.454 62.728 442.99 62.424C442.542 62.12 441.934 61.968 441.166 61.968C440.606 61.968 440.07 62.088 439.558 62.328C439.062 62.568 438.63 62.896 438.262 63.312L436.726 61.68C437.27 61.136 437.926 60.68 438.694 60.312C439.462 59.944 440.278 59.76 441.142 59.76C441.862 59.76 442.518 59.856 443.11 60.048C443.718 60.24 444.23 60.512 444.646 60.864C445.078 61.2 445.406 61.608 445.63 62.088C445.87 62.568 445.99 63.104 445.99 63.696ZM443.638 66.576H442.438C441.958 66.576 441.454 66.592 440.926 66.624C440.398 66.64 439.902 66.712 439.438 66.84C438.99 66.952 438.614 67.128 438.31 67.368C438.022 67.608 437.878 67.936 437.878 68.352C437.878 68.976 438.118 69.456 438.598 69.792C439.078 70.112 439.654 70.272 440.326 70.272C440.822 70.272 441.262 70.176 441.646 69.984C442.046 69.792 442.382 69.536 442.654 69.216C442.942 68.88 443.166 68.488 443.326 68.04C443.486 67.592 443.59 67.104 443.638 66.576ZM447.758 66C447.758 65.056 447.886 64.208 448.142 63.456C448.414 62.688 448.782 62.032 449.246 61.488C449.71 60.928 450.27 60.504 450.926 60.216C451.582 59.912 452.302 59.76 453.086 59.76C453.854 59.76 454.55 59.904 455.174 60.192C455.814 60.48 456.366 60.88 456.83 61.392V60H459.182V71.664C459.182 72.48 459.046 73.216 458.774 73.872C458.518 74.544 458.15 75.112 457.67 75.576C457.19 76.04 456.606 76.4 455.918 76.656C455.23 76.912 454.462 77.04 453.614 77.04C452.862 77.04 452.166 76.936 451.526 76.728C450.902 76.52 450.35 76.232 449.87 75.864L451.334 74.064C451.894 74.576 452.638 74.832 453.566 74.832C454.558 74.832 455.35 74.544 455.942 73.968C456.534 73.392 456.83 72.624 456.83 71.664V70.608C456.366 71.12 455.814 71.52 455.174 71.808C454.55 72.096 453.854 72.24 453.086 72.24C452.302 72.24 451.582 72.096 450.926 71.808C450.27 71.504 449.71 71.08 449.246 70.536C448.782 69.976 448.414 69.312 448.142 68.544C447.886 67.776 447.758 66.928 447.758 66ZM450.062 66C450.062 66.56 450.134 67.096 450.278 67.608C450.422 68.104 450.63 68.544 450.902 68.928C451.174 69.312 451.518 69.616 451.934 69.84C452.35 70.064 452.83 70.176 453.374 70.176C453.918 70.176 454.398 70.064 454.814 69.84C455.23 69.616 455.574 69.312 455.846 68.928C456.118 68.544 456.326 68.104 456.47 67.608C456.614 67.096 456.686 66.56 456.686 66C456.686 65.44 456.614 64.912 456.47 64.416C456.326 63.904 456.118 63.456 455.846 63.072C455.574 62.688 455.23 62.384 454.814 62.16C454.398 61.936 453.918 61.824 453.374 61.824C452.83 61.824 452.35 61.936 451.934 62.16C451.518 62.384 451.174 62.688 450.902 63.072C450.63 63.456 450.422 63.904 450.278 64.416C450.134 64.912 450.062 65.44 450.062 66ZM466.569 72.24C465.737 72.24 464.977 72.104 464.289 71.832C463.601 71.544 463.009 71.144 462.513 70.632C462.017 70.104 461.633 69.472 461.361 68.736C461.089 68 460.953 67.184 460.953 66.288V65.76C460.953 64.864 461.089 64.048 461.361 63.312C461.633 62.576 462.017 61.944 462.513 61.416C463.009 60.888 463.601 60.48 464.289 60.192C464.977 59.904 465.737 59.76 466.569 59.76C467.401 59.76 468.161 59.904 468.849 60.192C469.537 60.48 470.129 60.888 470.625 61.416C471.121 61.944 471.505 62.576 471.777 63.312C472.049 64.048 472.185 64.864 472.185 65.76V66.576H463.257C463.305 67.616 463.609 68.488 464.169 69.192C464.729 69.88 465.529 70.224 466.569 70.224C467.225 70.224 467.809 70.096 468.321 69.84C468.849 69.584 469.297 69.264 469.665 68.88L471.225 70.272C470.745 70.88 470.073 71.36 469.209 71.712C468.361 72.064 467.481 72.24 466.569 72.24ZM463.353 64.752H469.785C469.641 63.888 469.297 63.176 468.753 62.616C468.225 62.056 467.497 61.776 466.569 61.776C465.641 61.776 464.905 62.056 464.361 62.616C463.833 63.176 463.497 63.888 463.353 64.752ZM473.731 60H476.131V61.08C476.979 60.36 478.035 60 479.299 60C480.051 60 480.723 60.12 481.315 60.36C481.923 60.584 482.435 60.912 482.851 61.344C483.283 61.776 483.611 62.296 483.835 62.904C484.075 63.496 484.195 64.16 484.195 64.896V72H481.795V64.896C481.795 64.512 481.723 64.152 481.579 63.816C481.435 63.464 481.235 63.168 480.979 62.928C480.723 62.672 480.419 62.472 480.067 62.328C479.731 62.184 479.363 62.112 478.963 62.112C478.563 62.112 478.187 62.184 477.835 62.328C477.499 62.472 477.203 62.672 476.947 62.928C476.691 63.168 476.491 63.464 476.347 63.816C476.203 64.152 476.131 64.512 476.131 64.896V72H473.731V60ZM485.679 66.24V65.76C485.679 64.864 485.815 64.048 486.087 63.312C486.359 62.576 486.743 61.944 487.239 61.416C487.735 60.888 488.327 60.48 489.015 60.192C489.719 59.904 490.487 59.76 491.319 59.76C492.167 59.76 492.935 59.912 493.623 60.216C494.327 60.504 494.927 60.928 495.423 61.488L493.863 63.048C493.591 62.664 493.231 62.368 492.783 62.16C492.351 61.936 491.855 61.824 491.295 61.824C490.751 61.824 490.271 61.928 489.855 62.136C489.439 62.344 489.095 62.632 488.823 63C488.551 63.352 488.343 63.768 488.199 64.248C488.055 64.728 487.983 65.248 487.983 65.808V66.192C487.983 66.752 488.055 67.272 488.199 67.752C488.343 68.232 488.551 68.656 488.823 69.024C489.111 69.376 489.463 69.656 489.879 69.864C490.311 70.072 490.807 70.176 491.367 70.176C491.879 70.176 492.359 70.088 492.807 69.912C493.271 69.72 493.639 69.432 493.911 69.048L495.423 70.512C494.927 71.072 494.327 71.504 493.623 71.808C492.935 72.096 492.167 72.24 491.319 72.24C490.487 72.24 489.719 72.096 489.015 71.808C488.327 71.52 487.735 71.112 487.239 70.584C486.743 70.056 486.359 69.424 486.087 68.688C485.815 67.952 485.679 67.136 485.679 66.24ZM497.391 76.8V74.64C497.903 74.64 498.335 74.528 498.687 74.304C499.055 74.096 499.359 73.84 499.599 73.536C499.839 73.248 500.023 72.944 500.151 72.624C500.295 72.32 500.391 72.08 500.439 71.904L496.287 60H498.639L501.639 68.592L504.735 60H507.087L502.767 72C502.623 72.416 502.439 72.896 502.215 73.44C501.991 74 501.679 74.528 501.279 75.024C500.879 75.52 500.367 75.936 499.743 76.272C499.119 76.624 498.335 76.8 497.391 76.8ZM513.771 61.968V60H515.355C515.355 58.512 515.787 57.344 516.651 56.496C517.515 55.632 518.699 55.2 520.203 55.2V57.456C519.483 57.456 518.891 57.68 518.427 58.128C517.979 58.56 517.755 59.184 517.755 60H520.203V61.968H517.755V72H515.355V61.968H513.771ZM521.785 72V60H524.185V61.392C524.649 60.944 525.193 60.6 525.817 60.36C526.457 60.12 527.161 60 527.929 60V62.016C527.401 62.016 526.905 62.104 526.441 62.28C525.993 62.44 525.601 62.68 525.265 63C524.929 63.32 524.665 63.712 524.473 64.176C524.281 64.624 524.185 65.136 524.185 65.712V72H521.785ZM540.084 65.76V66.24C540.084 67.136 539.948 67.952 539.676 68.688C539.404 69.424 539.02 70.056 538.524 70.584C538.028 71.112 537.436 71.52 536.748 71.808C536.06 72.096 535.3 72.24 534.468 72.24C533.636 72.24 532.876 72.096 532.188 71.808C531.5 71.52 530.908 71.112 530.412 70.584C529.916 70.056 529.532 69.424 529.26 68.688C528.988 67.952 528.852 67.136 528.852 66.24V65.76C528.852 64.864 528.988 64.048 529.26 63.312C529.532 62.576 529.916 61.944 530.412 61.416C530.908 60.888 531.5 60.48 532.188 60.192C532.876 59.904 533.636 59.76 534.468 59.76C535.3 59.76 536.06 59.904 536.748 60.192C537.436 60.48 538.028 60.888 538.524 61.416C539.02 61.944 539.404 62.576 539.676 63.312C539.948 64.048 540.084 64.864 540.084 65.76ZM537.78 66.24V65.76C537.78 65.2 537.708 64.68 537.564 64.2C537.42 63.72 537.212 63.304 536.94 62.952C536.668 62.584 536.324 62.296 535.908 62.088C535.492 61.88 535.012 61.776 534.468 61.776C533.924 61.776 533.444 61.88 533.028 62.088C532.612 62.296 532.268 62.584 531.996 62.952C531.724 63.304 531.516 63.72 531.372 64.2C531.228 64.68 531.156 65.2 531.156 65.76V66.24C531.156 66.8 531.228 67.32 531.372 67.8C531.516 68.28 531.724 68.704 531.996 69.072C532.268 69.424 532.612 69.704 533.028 69.912C533.444 70.12 533.924 70.224 534.468 70.224C535.012 70.224 535.492 70.12 535.908 69.912C536.324 69.704 536.668 69.424 536.94 69.072C537.212 68.704 537.42 68.28 537.564 67.8C537.708 67.32 537.78 66.8 537.78 66.24ZM541.822 72V60H544.222V61.008C544.99 60.336 545.95 60 547.102 60C547.918 60 548.638 60.16 549.262 60.48C549.902 60.8 550.422 61.248 550.822 61.824C551.206 61.248 551.718 60.8 552.358 60.48C552.998 60.16 553.726 60 554.542 60C555.246 60 555.878 60.12 556.438 60.36C557.014 60.584 557.502 60.912 557.902 61.344C558.318 61.776 558.638 62.296 558.862 62.904C559.086 63.496 559.198 64.16 559.198 64.896V72H556.798V64.896C556.798 64.048 556.566 63.376 556.102 62.88C555.638 62.368 555.022 62.112 554.254 62.112C553.486 62.112 552.87 62.368 552.406 62.88C551.942 63.376 551.71 64.048 551.71 64.896V72H549.31V64.896C549.31 64.048 549.078 63.376 548.614 62.88C548.15 62.368 547.534 62.112 546.766 62.112C545.998 62.112 545.382 62.368 544.918 62.88C544.454 63.376 544.222 64.048 544.222 64.896V72H541.822ZM577.661 67.68L579.149 72H581.693L575.837 55.2H572.573L566.717 72H569.261L570.749 67.68H577.661ZM571.565 65.424L574.205 57.768L576.845 65.424H571.565ZM585.666 72V55.2H583.266V72H585.666ZM595.12 60L590.752 64.368V55.2H588.352V72H590.752V66.672L595.36 72H598.576L592.792 65.544L598.336 60H595.12ZM599.525 72V60H601.925V61.008C602.693 60.336 603.653 60 604.805 60C605.621 60 606.341 60.16 606.965 60.48C607.605 60.8 608.125 61.248 608.525 61.824C608.909 61.248 609.421 60.8 610.061 60.48C610.701 60.16 611.429 60 612.245 60C612.949 60 613.581 60.12 614.141 60.36C614.717 60.584 615.205 60.912 615.605 61.344C616.021 61.776 616.341 62.296 616.565 62.904C616.789 63.496 616.901 64.16 616.901 64.896V72H614.501V64.896C614.501 64.048 614.269 63.376 613.805 62.88C613.341 62.368 612.725 62.112 611.957 62.112C611.189 62.112 610.573 62.368 610.109 62.88C609.645 63.376 609.413 64.048 609.413 64.896V72H607.013V64.896C607.013 64.048 606.781 63.376 606.317 62.88C605.853 62.368 605.237 62.112 604.469 62.112C603.701 62.112 603.085 62.368 602.621 62.88C602.157 63.376 601.925 64.048 601.925 64.896V72H599.525ZM629.177 63.696V72H626.873V70.68C626.409 71.176 625.873 71.56 625.265 71.832C624.657 72.104 623.977 72.24 623.225 72.24C622.617 72.24 622.041 72.16 621.497 72C620.969 71.84 620.505 71.608 620.105 71.304C619.705 70.984 619.385 70.608 619.145 70.176C618.921 69.728 618.809 69.216 618.809 68.64C618.809 68 618.937 67.464 619.193 67.032C619.449 66.6 619.777 66.24 620.177 65.952C620.593 65.664 621.057 65.44 621.569 65.28C622.081 65.12 622.601 65 623.129 64.92C623.657 64.84 624.161 64.792 624.641 64.776C625.121 64.76 625.529 64.752 625.865 64.752H626.873V63.696C626.873 63.152 626.641 62.728 626.177 62.424C625.729 62.12 625.121 61.968 624.353 61.968C623.793 61.968 623.257 62.088 622.745 62.328C622.249 62.568 621.817 62.896 621.449 63.312L619.913 61.68C620.457 61.136 621.113 60.68 621.881 60.312C622.649 59.944 623.465 59.76 624.329 59.76C625.049 59.76 625.705 59.856 626.297 60.048C626.905 60.24 627.417 60.512 627.833 60.864C628.265 61.2 628.593 61.608 628.817 62.088C629.057 62.568 629.177 63.104 629.177 63.696ZM626.825 66.576H625.625C625.145 66.576 624.641 66.592 624.113 66.624C623.585 66.64 623.089 66.712 622.625 66.84C622.177 66.952 621.801 67.128 621.497 67.368C621.209 67.608 621.065 67.936 621.065 68.352C621.065 68.976 621.305 69.456 621.785 69.792C622.265 70.112 622.841 70.272 623.513 70.272C624.009 70.272 624.449 70.176 624.833 69.984C625.233 69.792 625.569 69.536 625.841 69.216C626.129 68.88 626.353 68.488 626.513 68.04C626.673 67.592 626.777 67.104 626.825 66.576ZM641.505 63.696V72H639.201V70.68C638.737 71.176 638.201 71.56 637.593 71.832C636.985 72.104 636.305 72.24 635.553 72.24C634.945 72.24 634.369 72.16 633.825 72C633.297 71.84 632.833 71.608 632.433 71.304C632.033 70.984 631.713 70.608 631.473 70.176C631.249 69.728 631.137 69.216 631.137 68.64C631.137 68 631.265 67.464 631.521 67.032C631.777 66.6 632.105 66.24 632.505 65.952C632.921 65.664 633.385 65.44 633.897 65.28C634.409 65.12 634.929 65 635.457 64.92C635.985 64.84 636.489 64.792 636.969 64.776C637.449 64.76 637.857 64.752 638.193 64.752H639.201V63.696C639.201 63.152 638.969 62.728 638.505 62.424C638.057 62.12 637.449 61.968 636.681 61.968C636.121 61.968 635.585 62.088 635.073 62.328C634.577 62.568 634.145 62.896 633.777 63.312L632.241 61.68C632.785 61.136 633.441 60.68 634.209 60.312C634.977 59.944 635.793 59.76 636.657 59.76C637.377 59.76 638.033 59.856 638.625 60.048C639.233 60.24 639.745 60.512 640.161 60.864C640.593 61.2 640.921 61.608 641.145 62.088C641.385 62.568 641.505 63.104 641.505 63.696ZM639.153 66.576H637.953C637.473 66.576 636.969 66.592 636.441 66.624C635.913 66.64 635.417 66.712 634.953 66.84C634.505 66.952 634.129 67.128 633.825 67.368C633.537 67.608 633.393 67.936 633.393 68.352C633.393 68.976 633.633 69.456 634.113 69.792C634.593 70.112 635.169 70.272 635.841 70.272C636.337 70.272 636.777 70.176 637.161 69.984C637.561 69.792 637.897 69.536 638.169 69.216C638.457 68.88 638.681 68.488 638.841 68.04C639.001 67.592 639.105 67.104 639.153 66.576ZM643.754 72V60H646.154V61.392C646.618 60.944 647.162 60.6 647.786 60.36C648.426 60.12 649.13 60 649.898 60V62.016C649.37 62.016 648.874 62.104 648.41 62.28C647.962 62.44 647.57 62.68 647.234 63C646.898 63.32 646.634 63.712 646.442 64.176C646.25 64.624 646.154 65.136 646.154 65.712V72H643.754ZM653.268 74.88H651.156C651.284 74.576 651.412 74.184 651.54 73.704C651.684 73.24 651.812 72.744 651.924 72.216C652.052 71.688 652.156 71.168 652.236 70.656C652.316 70.144 652.356 69.712 652.356 69.36H654.468C654.468 69.712 654.436 70.12 654.372 70.584C654.324 71.048 654.244 71.528 654.132 72.024C654.036 72.52 653.908 73.016 653.748 73.512C653.604 74.008 653.444 74.464 653.268 74.88ZM662.135 61.968V60H663.719V56.64H666.119V60H668.567V61.968H666.119V67.872C666.119 68.528 666.343 69 666.791 69.288C667.239 69.56 667.847 69.696 668.615 69.696V72C667.015 72 665.799 71.688 664.967 71.064C664.135 70.44 663.719 69.44 663.719 68.064V61.968H662.135ZM670.477 55.2H672.877V61.032C673.725 60.312 674.797 59.952 676.093 59.952C676.845 59.952 677.525 60.072 678.133 60.312C678.741 60.552 679.261 60.896 679.693 61.344C680.125 61.792 680.453 62.328 680.677 62.952C680.917 63.576 681.037 64.272 681.037 65.04V72H678.733V65.04C678.733 64.608 678.653 64.208 678.493 63.84C678.349 63.472 678.141 63.152 677.869 62.88C677.613 62.608 677.309 62.4 676.957 62.256C676.605 62.096 676.221 62.016 675.805 62.016C675.405 62.016 675.021 62.096 674.653 62.256C674.301 62.4 673.989 62.608 673.717 62.88C673.461 63.152 673.253 63.472 673.093 63.84C672.949 64.208 672.877 64.608 672.877 65.04V72H670.477V55.2ZM688.429 72.24C687.597 72.24 686.837 72.104 686.149 71.832C685.461 71.544 684.869 71.144 684.373 70.632C683.877 70.104 683.493 69.472 683.221 68.736C682.949 68 682.813 67.184 682.813 66.288V65.76C682.813 64.864 682.949 64.048 683.221 63.312C683.493 62.576 683.877 61.944 684.373 61.416C684.869 60.888 685.461 60.48 686.149 60.192C686.837 59.904 687.597 59.76 688.429 59.76C689.261 59.76 690.021 59.904 690.709 60.192C691.397 60.48 691.989 60.888 692.485 61.416C692.981 61.944 693.365 62.576 693.637 63.312C693.909 64.048 694.045 64.864 694.045 65.76V66.576H685.117C685.165 67.616 685.469 68.488 686.029 69.192C686.589 69.88 687.389 70.224 688.429 70.224C689.085 70.224 689.669 70.096 690.181 69.84C690.709 69.584 691.157 69.264 691.525 68.88L693.085 70.272C692.605 70.88 691.933 71.36 691.069 71.712C690.221 72.064 689.341 72.24 688.429 72.24ZM685.213 64.752H691.645C691.501 63.888 691.157 63.176 690.613 62.616C690.085 62.056 689.357 61.776 688.429 61.776C687.501 61.776 686.765 62.056 686.221 62.616C685.693 63.176 685.357 63.888 685.213 64.752ZM713.921 67.8L704.897 55.2H702.497V72H704.897V59.4L713.921 72H716.321V55.2H713.921V67.8ZM724.147 72.24C723.315 72.24 722.555 72.104 721.867 71.832C721.179 71.544 720.587 71.144 720.091 70.632C719.595 70.104 719.211 69.472 718.939 68.736C718.667 68 718.531 67.184 718.531 66.288V65.76C718.531 64.864 718.667 64.048 718.939 63.312C719.211 62.576 719.595 61.944 720.091 61.416C720.587 60.888 721.179 60.48 721.867 60.192C722.555 59.904 723.315 59.76 724.147 59.76C724.979 59.76 725.739 59.904 726.427 60.192C727.115 60.48 727.707 60.888 728.203 61.416C728.699 61.944 729.083 62.576 729.355 63.312C729.627 64.048 729.763 64.864 729.763 65.76V66.576H720.835C720.883 67.616 721.187 68.488 721.747 69.192C722.307 69.88 723.107 70.224 724.147 70.224C724.803 70.224 725.387 70.096 725.899 69.84C726.427 69.584 726.875 69.264 727.243 68.88L728.803 70.272C728.323 70.88 727.651 71.36 726.787 71.712C725.939 72.064 725.059 72.24 724.147 72.24ZM720.931 64.752H727.363C727.219 63.888 726.875 63.176 726.331 62.616C725.803 62.056 725.075 61.776 724.147 61.776C723.219 61.776 722.483 62.056 721.939 62.616C721.411 63.176 721.075 63.888 720.931 64.752ZM730.877 61.968V60H732.461V56.64H734.861V60H737.309V61.968H734.861V67.872C734.861 68.528 735.085 69 735.533 69.288C735.981 69.56 736.589 69.696 737.357 69.696V72C735.757 72 734.541 71.688 733.709 71.064C732.877 70.44 732.461 69.44 732.461 68.064V61.968H730.877ZM739.219 55.2H741.619V61.032C742.467 60.312 743.539 59.952 744.835 59.952C745.587 59.952 746.267 60.072 746.875 60.312C747.483 60.552 748.003 60.896 748.435 61.344C748.867 61.792 749.195 62.328 749.419 62.952C749.659 63.576 749.779 64.272 749.779 65.04V72H747.475V65.04C747.475 64.608 747.395 64.208 747.235 63.84C747.091 63.472 746.883 63.152 746.611 62.88C746.355 62.608 746.051 62.4 745.699 62.256C745.347 62.096 744.963 62.016 744.547 62.016C744.147 62.016 743.763 62.096 743.395 62.256C743.043 62.4 742.731 62.608 742.459 62.88C742.203 63.152 741.995 63.472 741.835 63.84C741.691 64.208 741.619 64.608 741.619 65.04V72H739.219V55.2ZM757.171 72.24C756.339 72.24 755.579 72.104 754.891 71.832C754.203 71.544 753.611 71.144 753.115 70.632C752.619 70.104 752.235 69.472 751.963 68.736C751.691 68 751.555 67.184 751.555 66.288V65.76C751.555 64.864 751.691 64.048 751.963 63.312C752.235 62.576 752.619 61.944 753.115 61.416C753.611 60.888 754.203 60.48 754.891 60.192C755.579 59.904 756.339 59.76 757.171 59.76C758.003 59.76 758.763 59.904 759.451 60.192C760.139 60.48 760.731 60.888 761.227 61.416C761.723 61.944 762.107 62.576 762.379 63.312C762.651 64.048 762.787 64.864 762.787 65.76V66.576H753.859C753.907 67.616 754.211 68.488 754.771 69.192C755.331 69.88 756.131 70.224 757.171 70.224C757.827 70.224 758.411 70.096 758.923 69.84C759.451 69.584 759.899 69.264 760.267 68.88L761.827 70.272C761.347 70.88 760.675 71.36 759.811 71.712C758.963 72.064 758.083 72.24 757.171 72.24ZM753.955 64.752H760.387C760.243 63.888 759.899 63.176 759.355 62.616C758.827 62.056 758.099 61.776 757.171 61.776C756.243 61.776 755.507 62.056 754.963 62.616C754.435 63.176 754.099 63.888 753.955 64.752ZM764.621 72V60H767.021V61.392C767.485 60.944 768.029 60.6 768.653 60.36C769.293 60.12 769.997 60 770.765 60V62.016C770.237 62.016 769.741 62.104 769.277 62.28C768.829 62.44 768.437 62.68 768.101 63C767.765 63.32 767.501 63.712 767.309 64.176C767.117 64.624 767.021 65.136 767.021 65.712V72H764.621ZM774.76 72V55.2H772.36V72H774.76ZM787.334 63.696V72H785.03V70.68C784.566 71.176 784.03 71.56 783.422 71.832C782.814 72.104 782.134 72.24 781.382 72.24C780.774 72.24 780.198 72.16 779.654 72C779.126 71.84 778.662 71.608 778.262 71.304C777.862 70.984 777.542 70.608 777.302 70.176C777.078 69.728 776.966 69.216 776.966 68.64C776.966 68 777.094 67.464 777.35 67.032C777.606 66.6 777.934 66.24 778.334 65.952C778.75 65.664 779.214 65.44 779.726 65.28C780.238 65.12 780.758 65 781.286 64.92C781.814 64.84 782.318 64.792 782.798 64.776C783.278 64.76 783.686 64.752 784.022 64.752H785.03V63.696C785.03 63.152 784.798 62.728 784.334 62.424C783.886 62.12 783.278 61.968 782.51 61.968C781.95 61.968 781.414 62.088 780.902 62.328C780.406 62.568 779.974 62.896 779.606 63.312L778.07 61.68C778.614 61.136 779.27 60.68 780.038 60.312C780.806 59.944 781.622 59.76 782.486 59.76C783.206 59.76 783.862 59.856 784.454 60.048C785.062 60.24 785.574 60.512 785.99 60.864C786.422 61.2 786.75 61.608 786.974 62.088C787.214 62.568 787.334 63.104 787.334 63.696ZM784.982 66.576H783.782C783.302 66.576 782.798 66.592 782.27 66.624C781.742 66.64 781.246 66.712 780.782 66.84C780.334 66.952 779.958 67.128 779.654 67.368C779.366 67.608 779.222 67.936 779.222 68.352C779.222 68.976 779.462 69.456 779.942 69.792C780.422 70.112 780.998 70.272 781.67 70.272C782.166 70.272 782.606 70.176 782.99 69.984C783.39 69.792 783.726 69.536 783.998 69.216C784.286 68.88 784.51 68.488 784.67 68.04C784.83 67.592 784.934 67.104 784.982 66.576ZM789.294 60H791.694V61.08C792.542 60.36 793.598 60 794.862 60C795.614 60 796.286 60.12 796.878 60.36C797.486 60.584 797.998 60.912 798.414 61.344C798.846 61.776 799.174 62.296 799.398 62.904C799.638 63.496 799.758 64.16 799.758 64.896V72H797.358V64.896C797.358 64.512 797.286 64.152 797.142 63.816C796.998 63.464 796.798 63.168 796.542 62.928C796.286 62.672 795.982 62.472 795.63 62.328C795.294 62.184 794.926 62.112 794.526 62.112C794.126 62.112 793.75 62.184 793.398 62.328C793.062 62.472 792.766 62.672 792.51 62.928C792.254 63.168 792.054 63.464 791.91 63.816C791.766 64.152 791.694 64.512 791.694 64.896V72H789.294V60ZM810.313 61.392V55.2H812.713V72H810.313V70.608C809.849 71.12 809.297 71.52 808.657 71.808C808.033 72.096 807.337 72.24 806.569 72.24C805.785 72.24 805.065 72.096 804.409 71.808C803.769 71.504 803.217 71.08 802.753 70.536C802.289 69.992 801.929 69.336 801.673 68.568C801.417 67.8 801.289 66.944 801.289 66C801.289 65.056 801.417 64.2 801.673 63.432C801.929 62.664 802.289 62.008 802.753 61.464C803.217 60.92 803.769 60.504 804.409 60.216C805.065 59.912 805.785 59.76 806.569 59.76C807.337 59.76 808.033 59.904 808.657 60.192C809.297 60.48 809.849 60.88 810.313 61.392ZM803.593 66C803.593 66.56 803.665 67.096 803.809 67.608C803.953 68.104 804.161 68.544 804.433 68.928C804.705 69.312 805.049 69.616 805.465 69.84C805.881 70.064 806.361 70.176 806.905 70.176C807.449 70.176 807.929 70.064 808.345 69.84C808.761 69.616 809.105 69.312 809.377 68.928C809.649 68.544 809.857 68.104 810.001 67.608C810.145 67.096 810.217 66.56 810.217 66C810.217 65.44 810.145 64.912 810.001 64.416C809.857 63.904 809.649 63.456 809.377 63.072C809.105 62.688 808.761 62.384 808.345 62.16C807.929 61.936 807.449 61.824 806.905 61.824C806.361 61.824 805.881 61.936 805.465 62.16C805.049 62.384 804.705 62.688 804.433 63.072C804.161 63.456 803.953 63.904 803.809 64.416C803.665 64.912 803.593 65.44 803.593 66ZM819.285 72.192C818.837 72.192 818.381 72.144 817.917 72.048C817.453 71.968 817.005 71.848 816.573 71.688C816.157 71.512 815.765 71.304 815.396 71.064C815.045 70.808 814.741 70.528 814.485 70.224L815.925 68.736C816.405 69.2 816.917 69.56 817.461 69.816C818.021 70.056 818.629 70.176 819.285 70.176C819.541 70.176 819.805 70.144 820.077 70.08C820.365 70.016 820.629 69.92 820.868 69.792C821.109 69.648 821.301 69.472 821.445 69.264C821.605 69.04 821.685 68.784 821.685 68.496C821.685 68.24 821.613 68.024 821.469 67.848C821.325 67.672 821.125 67.52 820.868 67.392C820.629 67.248 820.349 67.128 820.029 67.032C819.709 66.936 819.365 66.84 818.997 66.744C818.501 66.616 817.997 66.48 817.485 66.336C816.989 66.176 816.533 65.968 816.117 65.712C815.717 65.44 815.389 65.104 815.133 64.704C814.893 64.288 814.773 63.768 814.773 63.144C814.789 62.616 814.917 62.144 815.157 61.728C815.397 61.312 815.717 60.952 816.117 60.648C816.517 60.344 816.989 60.112 817.533 59.952C818.077 59.792 818.661 59.712 819.285 59.712C820.149 59.712 820.933 59.856 821.637 60.144C822.341 60.416 822.941 60.824 823.437 61.368L822.117 62.832C821.781 62.416 821.373 62.112 820.893 61.92C820.413 61.728 819.893 61.632 819.333 61.632C818.725 61.632 818.197 61.768 817.749 62.04C817.301 62.296 817.077 62.656 817.077 63.12C817.077 63.376 817.149 63.592 817.293 63.768C817.437 63.944 817.629 64.104 817.869 64.248C818.125 64.376 818.413 64.488 818.733 64.584C819.069 64.68 819.413 64.776 819.765 64.872C820.229 64.984 820.693 65.112 821.157 65.256C821.637 65.4 822.077 65.584 822.477 65.808C822.877 66.032 823.213 66.32 823.485 66.672C823.773 67.008 823.949 67.432 824.013 67.944C824.013 68.024 824.013 68.112 824.013 68.208C824.029 68.288 824.037 68.376 824.037 68.472C824.021 69.016 823.893 69.52 823.653 69.984C823.429 70.448 823.109 70.84 822.693 71.16C822.277 71.48 821.781 71.736 821.205 71.928C820.629 72.104 819.989 72.192 819.285 72.192ZM826.295 70.656C826.295 70.288 826.423 69.976 826.679 69.72C826.951 69.448 827.271 69.312 827.639 69.312C828.007 69.312 828.319 69.448 828.575 69.72C828.847 69.976 828.983 70.288 828.983 70.656C828.983 71.024 828.847 71.344 828.575 71.616C828.319 71.872 828.007 72 827.639 72C827.271 72 826.951 71.872 826.679 71.616C826.423 71.344 826.295 71.024 826.295 70.656Z" fill="#C6C9E6"/>
<circle cx="58" cy="64" r="7" stroke="#8A90C7" stroke-width="2"/>
<path d="M638.5 210.075L702.776 145.78C701.603 144.353 700.966 142.562 700.973 140.715C700.954 138.57 701.787 136.504 703.29 134.973C704.793 133.442 706.842 132.571 708.987 132.551C711.132 132.532 713.198 133.365 714.729 134.868C716.259 136.371 717.13 138.421 717.15 140.566L717.15 140.715C717.146 142.859 716.293 144.914 714.777 146.43C713.261 147.946 711.206 148.8 709.062 148.804C709.012 148.811 708.962 148.811 708.913 148.804C707.116 148.786 705.379 148.161 703.982 147.031L640.943 210.075L638.5 210.075ZM709.077 147.076C709.697 147.079 710.315 146.988 710.909 146.808C711.913 146.5 712.827 145.951 713.57 145.208C714.313 144.465 714.862 143.552 715.169 142.547C715.35 141.953 715.44 141.336 715.437 140.715C715.44 139.453 715.068 138.218 714.369 137.167C713.67 136.116 712.674 135.297 711.508 134.812C710.343 134.328 709.06 134.2 707.822 134.446C706.584 134.691 705.446 135.299 704.554 136.192C703.661 137.084 703.054 138.222 702.808 139.46C702.563 140.698 702.69 141.981 703.174 143.147C703.659 144.312 704.478 145.308 705.529 146.008C706.58 146.707 707.814 147.079 709.077 147.076V147.076Z" fill="#8A90C7"/>
<g clip-path="url(#clip1_912_6146)">
<path d="M1045.18 96.8218C1044.73 97.8598 1044.07 98.7904 1043.23 99.5528C1042.41 100.301 1041.47 100.9 1040.45 101.321C1039.43 101.743 1038.35 102.007 1037.25 102.103C1035.9 102.219 1034.75 102.131 1033.8 101.84C1032.97 101.582 1032.14 101.104 1031.32 100.405C1031.14 100.251 1031.13 99.9794 1031.29 99.8056L1034.41 96.4289C1034.57 96.2521 1034.85 96.2467 1035.04 96.3956C1035.29 96.593 1035.56 96.7612 1035.85 96.8966C1036.3 97.0612 1036.78 97.1137 1037.25 97.0498C1038.18 96.9674 1038.91 96.6384 1039.45 96.0628C1039.98 95.4872 1040.25 94.6697 1040.25 93.6102V78.9707C1040.25 78.7485 1040.42 78.5632 1040.64 78.5438L1045.43 78.1245C1045.68 78.1025 1045.89 78.3 1045.89 78.5514V93.2447C1045.91 94.474 1045.67 95.6932 1045.18 96.8218Z" fill="white"/>
<path d="M1066.56 94.618C1066.12 95.6682 1065.48 96.6219 1064.67 97.4257C1063.86 98.2339 1062.91 98.888 1061.87 99.3561C1060.8 99.8361 1059.66 100.13 1058.5 100.226C1057.37 100.338 1056.24 100.243 1055.14 99.9461C1054.13 99.6664 1053.18 99.1761 1052.36 98.5066C1051.55 97.8399 1050.91 96.9914 1050.49 96.0297C1050.03 94.9809 1049.81 93.8468 1049.83 92.7033V78.1263C1049.83 77.9042 1049.99 77.7188 1050.22 77.6994L1055 77.2786C1055.25 77.2566 1055.47 77.454 1055.47 77.7055V92.0784C1055.47 93.1367 1055.74 93.9392 1056.27 94.4857C1056.81 95.034 1057.55 95.2638 1058.5 95.1819C1058.93 95.1591 1059.35 95.051 1059.73 94.8639C1060.12 94.6769 1060.46 94.4146 1060.75 94.0923C1061.31 93.4506 1061.59 92.6001 1061.59 91.5405V77.0959C1061.59 76.8737 1061.76 76.6884 1061.98 76.6689L1066.76 76.2481C1067.01 76.2261 1067.23 76.4236 1067.23 76.6751V91.1768C1067.24 92.3577 1067.01 93.5285 1066.56 94.618Z" fill="white"/>
<path d="M1086.22 93.6188C1085.77 94.5642 1085.12 95.4002 1084.32 96.0696C1083.47 96.7756 1082.51 97.3361 1081.48 97.7284C1080.37 98.1545 1079.21 98.42 1078.03 98.5169C1076.14 98.684 1074.49 98.608 1073.08 98.2889C1071.8 97.9965 1070.61 97.3877 1069.63 96.5203C1069.45 96.3676 1069.45 96.103 1069.6 95.9324L1072.65 92.5966C1072.81 92.4246 1073.07 92.4118 1073.26 92.5482C1073.82 92.9515 1074.47 93.2204 1075.15 93.3315C1076.11 93.5128 1077.09 93.5574 1078.06 93.4638C1080.26 93.2724 1081.36 92.485 1081.36 91.1018C1081.36 90.5186 1081.21 90.0782 1080.9 89.7806C1080.6 89.483 1080.08 89.3246 1079.39 89.2985L1078.03 89.2236L1076.62 89.154C1074.58 89.0298 1073.04 88.4844 1072.01 87.5178C1070.95 86.5082 1070.43 85.0101 1070.43 83.0234C1070.41 82.0067 1070.6 80.9975 1071 80.0597C1071.39 79.1219 1071.97 78.2759 1072.7 77.5752C1074.22 76.0818 1076.25 75.2225 1078.81 74.9973C1080.49 74.8511 1081.95 74.9381 1083.21 75.2584C1084.32 75.5387 1085.35 76.0623 1086.23 76.7894C1086.41 76.9398 1086.42 77.2111 1086.26 77.3851L1083.41 80.4905C1083.18 80.7388 1082.8 80.7458 1082.52 80.5573C1082.09 80.2682 1081.61 80.0746 1081.09 79.993C1080.28 79.8902 1079.46 79.8808 1078.65 79.9652C1077.75 80.0452 1077.06 80.322 1076.59 80.7954C1076.37 80.9921 1076.19 81.2312 1076.07 81.4982C1075.95 81.7652 1075.89 82.0544 1075.88 82.3481C1075.87 82.5422 1075.91 82.7347 1075.99 82.9124C1076.07 83.09 1076.18 83.2485 1076.33 83.3768C1076.69 83.7122 1077.22 83.8926 1077.91 83.9181L1079.17 83.9686L1080.68 84.0626C1082.7 84.167 1084.21 84.6718 1085.19 85.577C1086.33 86.6005 1086.9 88.235 1086.9 90.4803C1086.91 91.5649 1086.68 92.6378 1086.22 93.6188Z" fill="white"/>
<path d="M1100.92 78.2981C1100.7 78.3175 1100.53 78.5029 1100.53 78.725V95.9521C1100.53 96.1742 1100.36 96.3596 1100.14 96.379L1095.36 96.7998C1095.11 96.8218 1094.89 96.6243 1094.89 96.3728V79.2964C1094.89 79.0449 1094.68 78.8474 1094.43 78.8695L1089.72 79.2837C1089.47 79.3057 1089.25 79.1083 1089.25 78.8568V74.6624C1089.25 74.4402 1089.42 74.2549 1089.64 74.2354L1105.71 72.8225C1105.96 72.8005 1106.17 72.9979 1106.17 73.2494V77.4438C1106.17 77.666 1106 77.8513 1105.78 77.8707L1100.92 78.2981Z" fill="white"/>
<path d="M1048.73 126.87C1047.4 128.184 1045.68 128.935 1043.57 129.123L1034.04 129.953C1033.79 129.974 1033.58 129.777 1033.58 129.526V107.327C1033.58 107.105 1033.75 106.92 1033.97 106.9L1043.09 106.098C1045.43 105.892 1047.24 106.337 1048.51 107.431C1049.78 108.525 1050.42 110.092 1050.42 112.131C1050.42 113.276 1050.15 114.244 1049.61 115.036C1049.14 115.75 1048.57 116.386 1047.9 116.919C1048.23 117.096 1048.55 117.289 1048.85 117.499C1049.18 117.738 1049.47 118.024 1049.72 118.346C1050.04 118.761 1050.28 119.227 1050.44 119.725C1050.65 120.359 1050.75 121.023 1050.74 121.69C1050.73 123.829 1050.06 125.556 1048.73 126.87ZM1044.28 111.629C1043.96 111.292 1043.44 111.153 1042.73 111.215L1039.61 111.49C1039.39 111.51 1039.22 111.695 1039.22 111.917V114.815C1039.22 115.066 1039.43 115.264 1039.69 115.242L1042.73 114.973C1043.44 114.91 1043.96 114.682 1044.28 114.287C1044.6 113.902 1044.77 113.416 1044.76 112.916C1044.77 112.68 1044.73 112.445 1044.65 112.224C1044.57 112.003 1044.44 111.801 1044.28 111.629ZM1044.59 120.486C1044.25 120.125 1043.73 119.976 1043.03 120.04L1039.61 120.34C1039.39 120.359 1039.22 120.545 1039.22 120.767V123.955C1039.22 124.207 1039.43 124.404 1039.68 124.382L1043.03 124.089C1043.74 124.026 1044.26 123.781 1044.59 123.352C1044.92 122.929 1045.1 122.404 1045.09 121.866C1045.11 121.358 1044.93 120.862 1044.59 120.486Z" fill="white"/>
<path d="M1055.09 128.109C1054.84 128.131 1054.63 127.933 1054.63 127.682V105.475C1054.63 105.253 1054.8 105.068 1055.02 105.048L1069.77 103.752C1070.02 103.73 1070.23 103.927 1070.23 104.179V108.372C1070.23 108.594 1070.06 108.779 1069.84 108.799L1060.66 109.607C1060.44 109.627 1060.27 109.812 1060.27 110.034V113.027C1060.27 113.279 1060.49 113.476 1060.74 113.454L1068.32 112.788C1068.57 112.766 1068.78 112.963 1068.78 113.215V117.409C1068.78 117.631 1068.61 117.817 1068.39 117.836L1060.66 118.516C1060.44 118.535 1060.27 118.72 1060.27 118.943V122.131C1060.27 122.382 1060.49 122.58 1060.74 122.558L1069.77 121.764C1070.02 121.742 1070.23 121.94 1070.23 122.191V126.385C1070.23 126.608 1070.06 126.793 1069.84 126.812L1055.09 128.109Z" fill="white"/>
<path d="M1084.55 107.506C1084.33 107.526 1084.16 107.711 1084.16 107.933V125.16C1084.16 125.382 1083.99 125.568 1083.76 125.587L1078.98 126.008C1078.73 126.03 1078.51 125.832 1078.51 125.581V108.504C1078.51 108.253 1078.3 108.056 1078.05 108.077L1073.34 108.492C1073.09 108.514 1072.87 108.316 1072.87 108.065V103.87C1072.87 103.648 1073.04 103.463 1073.26 103.443L1089.33 102.03C1089.58 102.008 1089.8 102.206 1089.8 102.457V106.652C1089.8 106.874 1089.63 107.059 1089.41 107.079L1084.55 107.506Z" fill="white"/>
<path d="M1103.4 105.847C1103.18 105.867 1103.01 106.052 1103.01 106.274V123.503C1103.01 123.725 1102.84 123.911 1102.62 123.93L1097.84 124.351C1097.59 124.373 1097.37 124.175 1097.37 123.924V106.846C1097.37 106.594 1097.16 106.397 1096.91 106.419L1092.2 106.833C1091.95 106.855 1091.73 106.658 1091.73 106.406V102.213C1091.73 101.991 1091.9 101.806 1092.12 101.787L1108.19 100.374C1108.44 100.351 1108.65 100.549 1108.65 100.8V104.993C1108.65 105.215 1108.48 105.401 1108.26 105.42L1103.4 105.847Z" fill="white"/>
<path d="M1112.41 123.068C1112.16 123.09 1111.95 122.893 1111.95 122.641V100.436C1111.95 100.214 1112.11 100.029 1112.34 100.009L1127.08 98.713C1127.33 98.691 1127.55 98.8884 1127.55 99.1399V103.333C1127.55 103.555 1127.38 103.74 1127.16 103.759L1117.98 104.566C1117.76 104.586 1117.59 104.771 1117.59 104.993V107.988C1117.59 108.24 1117.8 108.437 1118.05 108.415L1125.63 107.749C1125.88 107.727 1126.1 107.924 1126.1 108.176V112.368C1126.1 112.59 1125.93 112.776 1125.71 112.795L1117.98 113.477C1117.76 113.496 1117.59 113.681 1117.59 113.904V117.092C1117.59 117.343 1117.8 117.541 1118.05 117.519L1127.08 116.725C1127.33 116.703 1127.55 116.901 1127.55 117.152V121.345C1127.55 121.567 1127.38 121.752 1127.16 121.772L1112.41 123.068Z" fill="white"/>
<path d="M1143.44 120.34C1143.27 120.356 1143.1 120.261 1143.02 120.103L1139.22 112.394C1139.14 112.236 1138.97 112.141 1138.8 112.157L1137.57 112.269C1137.35 112.289 1137.18 112.474 1137.18 112.696V120.497C1137.18 120.719 1137.01 120.905 1136.79 120.924L1132.01 121.345C1131.76 121.367 1131.54 121.169 1131.54 120.918V98.7131C1131.54 98.4909 1131.71 98.3055 1131.93 98.2862L1140.63 97.5215C1141.75 97.4039 1142.87 97.508 1143.95 97.8278C1144.88 98.1053 1145.73 98.5964 1146.43 99.2622C1147.09 99.8984 1147.61 100.67 1147.95 101.525C1148.29 102.391 1148.47 103.316 1148.47 104.249C1148.49 105.598 1148.12 106.924 1147.39 108.054C1146.79 108.985 1146 109.779 1145.08 110.386C1144.89 110.513 1144.81 110.765 1144.92 110.969L1149.38 119.216C1149.53 119.487 1149.35 119.82 1149.05 119.847L1143.44 120.34ZM1142.17 103.17C1141.73 102.743 1141.13 102.563 1140.38 102.63L1137.59 102.872C1137.36 102.891 1137.19 103.076 1137.19 103.298V107.102C1137.19 107.354 1137.41 107.551 1137.66 107.529L1140.38 107.29C1140.72 107.273 1141.06 107.189 1141.36 107.043C1141.67 106.896 1141.95 106.69 1142.17 106.435C1142.6 105.974 1142.84 105.37 1142.84 104.742C1142.84 104.447 1142.78 104.155 1142.67 103.884C1142.55 103.614 1142.38 103.37 1142.17 103.17Z" fill="white"/>
<path d="M1123.39 126.418L1149.3 124.139C1149.52 124.119 1149.69 123.934 1149.69 123.712V122.832C1149.69 122.58 1149.48 122.383 1149.23 122.405L1123.39 124.677" fill="white"/>
<path d="M1106.6 127.866L1119.37 126.743C1119.59 126.723 1119.76 126.538 1119.76 126.316V125.435C1119.76 125.184 1119.55 124.987 1119.3 125.009L1106.6 126.125" fill="white"/>
<path d="M1040.26 75.5024L1066.17 73.2234C1066.39 73.204 1066.56 73.0186 1066.56 72.7965V71.9163C1066.56 71.6648 1066.34 71.4673 1066.09 71.4893L1040.26 73.7617" fill="white"/>
<path d="M1070.19 72.8982L1082.96 71.775C1083.18 71.7556 1083.35 71.5703 1083.35 71.3481V70.4679C1083.35 70.2164 1083.14 70.019 1082.89 70.041L1070.19 71.1576" fill="white"/>
</g>
<path d="M393.992 110.8L378.953 119.384V136.529L383.246 138.983L383.216 121.834L393.962 115.701L404.708 121.834V138.976L409.001 136.529V119.369L393.992 110.8Z" fill="white"/>
<path d="M396.085 139.033L393.98 140.273L391.865 139.044V121.783L387.656 124.249L387.664 141.502L393.977 145.2L400.297 141.502V124.249L396.085 121.783V139.033Z" fill="white"/>
<path fill-rule="evenodd" clip-rule="evenodd" d="M338.983 120.048C338.994 120.089 339 120.132 339 120.175V126.862C339 126.948 338.978 127.032 338.935 127.107C338.892 127.181 338.831 127.243 338.757 127.285L333.193 130.517V136.922C333.193 137.096 333.101 137.257 332.952 137.345L321.337 144.089C321.311 144.104 321.282 144.114 321.253 144.124C321.242 144.128 321.232 144.135 321.22 144.138C321.139 144.159 321.054 144.159 320.972 144.138C320.959 144.134 320.947 144.127 320.934 144.122C320.908 144.112 320.88 144.104 320.855 144.089L309.243 137.345C309.169 137.302 309.108 137.24 309.065 137.166C309.023 137.092 309 137.007 309 136.922V116.86C309 116.816 309.006 116.774 309.017 116.732C309.021 116.718 309.029 116.705 309.034 116.691C309.043 116.666 309.051 116.64 309.065 116.616C309.074 116.6 309.087 116.587 309.098 116.573C309.112 116.553 309.124 116.533 309.141 116.516C309.155 116.502 309.173 116.492 309.189 116.479C309.206 116.465 309.222 116.449 309.242 116.437H309.242L315.048 113.065C315.122 113.022 315.205 113 315.29 113C315.375 113 315.458 113.022 315.532 113.065L321.338 116.437H321.339C321.359 116.45 321.375 116.465 321.392 116.479C321.408 116.491 321.426 116.502 321.439 116.515C321.456 116.533 321.468 116.553 321.483 116.573C321.493 116.587 321.507 116.6 321.516 116.616C321.53 116.64 321.537 116.666 321.547 116.691C321.552 116.705 321.56 116.718 321.564 116.733C321.575 116.774 321.581 116.817 321.581 116.86V129.39L326.419 126.58V120.175C326.419 120.132 326.425 120.089 326.436 120.048C326.44 120.033 326.448 120.02 326.453 120.006C326.463 119.981 326.471 119.955 326.484 119.931C326.493 119.915 326.507 119.902 326.517 119.888C326.532 119.868 326.544 119.848 326.561 119.831C326.574 119.817 326.592 119.806 326.608 119.794C326.626 119.78 326.641 119.764 326.661 119.752H326.661L332.468 116.38C332.542 116.337 332.625 116.315 332.71 116.315C332.795 116.315 332.878 116.337 332.952 116.38L338.758 119.752C338.778 119.764 338.794 119.78 338.812 119.794C338.827 119.806 338.845 119.817 338.859 119.83C338.876 119.848 338.888 119.868 338.902 119.888C338.913 119.902 338.926 119.915 338.935 119.931C338.949 119.955 338.956 119.981 338.966 120.006C338.972 120.02 338.979 120.033 338.983 120.048V120.048ZM338.032 126.58V121.019L336 122.199L333.193 123.83V129.39L338.033 126.58H338.032ZM332.226 136.639V131.075L329.465 132.666L321.58 137.205V142.822L332.226 136.639ZM309.968 117.704V136.639L320.612 142.821V137.206L315.051 134.031L315.05 134.03L315.047 134.028C315.029 134.017 315.013 134.002 314.995 133.988C314.98 133.976 314.963 133.966 314.949 133.953L314.948 133.951C314.932 133.936 314.922 133.917 314.908 133.9C314.896 133.883 314.882 133.869 314.872 133.852L314.871 133.85C314.861 133.832 314.854 133.81 314.846 133.79C314.838 133.771 314.828 133.754 314.823 133.735V133.734C314.817 133.711 314.816 133.687 314.813 133.663C314.811 133.644 314.806 133.626 314.806 133.608V133.607V120.515L312 118.884L309.968 117.705V117.704ZM315.291 114.051L310.453 116.86L315.29 119.669L320.127 116.86L315.29 114.051H315.291ZM317.807 131.582L320.613 129.952V117.704L318.581 118.884L315.774 120.515V132.763L317.807 131.582ZM332.71 117.366L327.873 120.175L332.71 122.984L337.546 120.175L332.71 117.366V117.366ZM332.226 123.83L329.419 122.199L327.387 121.019V126.58L330.193 128.21L332.226 129.39V123.83ZM321.096 136.361L328.191 132.275L331.737 130.233L326.904 127.426L321.339 130.658L316.266 133.604L321.096 136.361V136.361Z" fill="white"/>
<path d="M476.67 142C479.301 142 480.267 140.862 480.267 138.078V132.632C480.267 130.042 481.522 128.565 482.728 127.863C483.091 127.645 483.091 127.137 482.728 126.895C481.473 126.096 480.267 124.426 480.267 122.199V116.873C480.267 113.871 479.446 113 476.815 113H453.185C450.554 113 449.733 113.871 449.733 116.873V122.223C449.733 124.45 448.527 126.12 447.272 126.919C446.909 127.137 446.909 127.669 447.272 127.887C448.478 128.565 449.733 130.042 449.733 132.656V138.078C449.733 140.862 450.699 142 453.33 142H476.67ZM464.94 137.038C462.116 137.038 460.064 136.19 458.157 134.52C457.843 134.23 457.723 133.866 457.723 133.503C457.723 133.213 457.795 132.898 458.012 132.656L458.616 131.881C458.905 131.518 459.219 131.349 459.581 131.349C459.992 131.349 460.378 131.518 460.788 131.785C462.092 132.632 463.54 133.116 465.278 133.116C466.605 133.116 467.667 132.559 467.667 131.422C467.667 128.468 457.868 130.09 457.868 123.457C457.868 119.899 460.764 117.914 464.529 117.914C467.184 117.914 469.139 118.689 470.588 119.609C470.95 119.851 471.191 120.335 471.191 120.819C471.191 121.109 471.119 121.376 470.95 121.618L470.515 122.271C470.201 122.707 469.839 122.925 469.381 122.925C469.067 122.925 468.729 122.804 468.367 122.634C467.281 122.078 466.146 121.787 464.771 121.787C463.347 121.787 462.502 122.562 462.502 123.361C462.502 126.386 472.301 124.74 472.301 131.179C472.301 134.811 469.381 137.038 464.94 137.038V137.038Z" fill="white"/>
</g>
<defs>
<clipPath id="clip0_912_6146">
<rect width="1200" height="200" rx="35" fill="white"/>
</clipPath>
<clipPath id="clip1_912_6146">
<rect width="119" height="60" fill="white" transform="translate(1031 70)"/>
</clipPath>
</defs>
</svg>
